<?xml version="1.0" encoding="utf-8" standalone="no"?>
<!DOCTYPE svg PUBLIC "-//W3C//DTD SVG 1.1//EN"
  "http://www.w3.org/Graphics/SVG/1.1/DTD/svg11.dtd">
<svg xmlns:xlink="http://www.w3.org/1999/xlink" width="720pt" height="360pt" viewBox="0 0 720 360" xmlns="http://www.w3.org/2000/svg" version="1.1">
 <metadata>
  <rdf:RDF xmlns:dc="http://purl.org/dc/elements/1.1/" xmlns:cc="http://creativecommons.org/ns#" xmlns:rdf="http://www.w3.org/1999/02/22-rdf-syntax-ns#">
   <cc:Work>
    <dc:type rdf:resource="http://purl.org/dc/dcmitype/StillImage"/>
    <dc:date>2024-05-18T17:36:46.712813</dc:date>
    <dc:format>image/svg+xml</dc:format>
    <dc:creator>
     <cc:Agent>
      <dc:title>Matplotlib v3.6.3, https://matplotlib.org/</dc:title>
     </cc:Agent>
    </dc:creator>
   </cc:Work>
  </rdf:RDF>
 </metadata>
 <defs>
  <style type="text/css">*{stroke-linejoin: round; stroke-linecap: butt}</style>
 </defs>
 <g id="figure_1">
  <g id="patch_1">
   <path d="M 0 360 
L 720 360 
L 720 0 
L 0 0 
z
" style="fill: #ffffff"/>
  </g>
  <g id="axes_1">
   <g id="patch_2">
    <path d="M 90 320.4 
L 648 320.4 
L 648 43.2 
L 90 43.2 
z
" style="fill: #ffffff"/>
   </g>
   <g id="matplotlib.axis_1">
    <g id="xtick_1">
     <g id="line2d_1">
      <path d="M 126.795114 320.4 
L 126.795114 43.2 
" clip-path="url(#p51b49f74a0)" style="fill: none; stroke-dasharray: 1.85,0.8; stroke-dashoffset: 0; stroke: #808080; stroke-opacity: 0.7; stroke-width: 0.5"/>
     </g>
     <g id="line2d_2">
      <defs>
       <path id="m3f8f0e2508" d="M 0 0 
L 0 -3.5 
" style="stroke: #1a1a1a; stroke-width: 0.8"/>
      </defs>
      <g>
       <use xlink:href="#m3f8f0e2508" x="126.795114" y="320.4" style="fill: #1a1a1a; stroke: #1a1a1a; stroke-width: 0.8"/>
      </g>
     </g>
     <g id="text_1">
      <!-- −6 -->
      <g style="fill: #1a1a1a" transform="translate(117.949801 333.018125) scale(0.12 -0.12)">
       <defs>
        <path id="DejaVuSans-2212" d="M 678 2272 
L 4684 2272 
L 4684 1741 
L 678 1741 
L 678 2272 
z
" transform="scale(0.015625)"/>
        <path id="DejaVuSans-36" d="M 2113 2584 
Q 1688 2584 1439 2293 
Q 1191 2003 1191 1497 
Q 1191 994 1439 701 
Q 1688 409 2113 409 
Q 2538 409 2786 701 
Q 3034 994 3034 1497 
Q 3034 2003 2786 2293 
Q 2538 2584 2113 2584 
z
M 3366 4563 
L 3366 3988 
Q 3128 4100 2886 4159 
Q 2644 4219 2406 4219 
Q 1781 4219 1451 3797 
Q 1122 3375 1075 2522 
Q 1259 2794 1537 2939 
Q 1816 3084 2150 3084 
Q 2853 3084 3261 2657 
Q 3669 2231 3669 1497 
Q 3669 778 3244 343 
Q 2819 -91 2113 -91 
Q 1303 -91 875 529 
Q 447 1150 447 2328 
Q 447 3434 972 4092 
Q 1497 4750 2381 4750 
Q 2619 4750 2861 4703 
Q 3103 4656 3366 4563 
z
" transform="scale(0.015625)"/>
       </defs>
       <use xlink:href="#DejaVuSans-2212"/>
       <use xlink:href="#DejaVuSans-36" x="83.789062"/>
      </g>
     </g>
    </g>
    <g id="xtick_2">
     <g id="line2d_3">
      <path d="M 207.530076 320.4 
L 207.530076 43.2 
" clip-path="url(#p51b49f74a0)" style="fill: none; stroke-dasharray: 1.85,0.8; stroke-dashoffset: 0; stroke: #808080; stroke-opacity: 0.7; stroke-width: 0.5"/>
     </g>
     <g id="line2d_4">
      <g>
       <use xlink:href="#m3f8f0e2508" x="207.530076" y="320.4" style="fill: #1a1a1a; stroke: #1a1a1a; stroke-width: 0.8"/>
      </g>
     </g>
     <g id="text_2">
      <!-- −4 -->
      <g style="fill: #1a1a1a" transform="translate(198.684763 333.018125) scale(0.12 -0.12)">
       <defs>
        <path id="DejaVuSans-34" d="M 2419 4116 
L 825 1625 
L 2419 1625 
L 2419 4116 
z
M 2253 4666 
L 3047 4666 
L 3047 1625 
L 3713 1625 
L 3713 1100 
L 3047 1100 
L 3047 0 
L 2419 0 
L 2419 1100 
L 313 1100 
L 313 1709 
L 2253 4666 
z
" transform="scale(0.015625)"/>
       </defs>
       <use xlink:href="#DejaVuSans-2212"/>
       <use xlink:href="#DejaVuSans-34" x="83.789062"/>
      </g>
     </g>
    </g>
    <g id="xtick_3">
     <g id="line2d_5">
      <path d="M 288.265038 320.4 
L 288.265038 43.2 
" clip-path="url(#p51b49f74a0)" style="fill: none; stroke-dasharray: 1.85,0.8; stroke-dashoffset: 0; stroke: #808080; stroke-opacity: 0.7; stroke-width: 0.5"/>
     </g>
     <g id="line2d_6">
      <g>
       <use xlink:href="#m3f8f0e2508" x="288.265038" y="320.4" style="fill: #1a1a1a; stroke: #1a1a1a; stroke-width: 0.8"/>
      </g>
     </g>
     <g id="text_3">
      <!-- −2 -->
      <g style="fill: #1a1a1a" transform="translate(279.419725 333.018125) scale(0.12 -0.12)">
       <defs>
        <path id="DejaVuSans-32" d="M 1228 531 
L 3431 531 
L 3431 0 
L 469 0 
L 469 531 
Q 828 903 1448 1529 
Q 2069 2156 2228 2338 
Q 2531 2678 2651 2914 
Q 2772 3150 2772 3378 
Q 2772 3750 2511 3984 
Q 2250 4219 1831 4219 
Q 1534 4219 1204 4116 
Q 875 4013 500 3803 
L 500 4441 
Q 881 4594 1212 4672 
Q 1544 4750 1819 4750 
Q 2544 4750 2975 4387 
Q 3406 4025 3406 3419 
Q 3406 3131 3298 2873 
Q 3191 2616 2906 2266 
Q 2828 2175 2409 1742 
Q 1991 1309 1228 531 
z
" transform="scale(0.015625)"/>
       </defs>
       <use xlink:href="#DejaVuSans-2212"/>
       <use xlink:href="#DejaVuSans-32" x="83.789062"/>
      </g>
     </g>
    </g>
    <g id="xtick_4">
     <g id="line2d_7">
      <path d="M 369 320.4 
L 369 43.2 
" clip-path="url(#p51b49f74a0)" style="fill: none; stroke-dasharray: 1.85,0.8; stroke-dashoffset: 0; stroke: #808080; stroke-opacity: 0.7; stroke-width: 0.5"/>
     </g>
     <g id="line2d_8">
      <g>
       <use xlink:href="#m3f8f0e2508" x="369" y="320.4" style="fill: #1a1a1a; stroke: #1a1a1a; stroke-width: 0.8"/>
      </g>
     </g>
     <g id="text_4">
      <!-- 0 -->
      <g style="fill: #1a1a1a" transform="translate(365.1825 333.018125) scale(0.12 -0.12)">
       <defs>
        <path id="DejaVuSans-30" d="M 2034 4250 
Q 1547 4250 1301 3770 
Q 1056 3291 1056 2328 
Q 1056 1369 1301 889 
Q 1547 409 2034 409 
Q 2525 409 2770 889 
Q 3016 1369 3016 2328 
Q 3016 3291 2770 3770 
Q 2525 4250 2034 4250 
z
M 2034 4750 
Q 2819 4750 3233 4129 
Q 3647 3509 3647 2328 
Q 3647 1150 3233 529 
Q 2819 -91 2034 -91 
Q 1250 -91 836 529 
Q 422 1150 422 2328 
Q 422 3509 836 4129 
Q 1250 4750 2034 4750 
z
" transform="scale(0.015625)"/>
       </defs>
       <use xlink:href="#DejaVuSans-30"/>
      </g>
     </g>
    </g>
    <g id="xtick_5">
     <g id="line2d_9">
      <path d="M 449.734962 320.4 
L 449.734962 43.2 
" clip-path="url(#p51b49f74a0)" style="fill: none; stroke-dasharray: 1.85,0.8; stroke-dashoffset: 0; stroke: #808080; stroke-opacity: 0.7; stroke-width: 0.5"/>
     </g>
     <g id="line2d_10">
      <g>
       <use xlink:href="#m3f8f0e2508" x="449.734962" y="320.4" style="fill: #1a1a1a; stroke: #1a1a1a; stroke-width: 0.8"/>
      </g>
     </g>
     <g id="text_5">
      <!-- 2 -->
      <g style="fill: #1a1a1a" transform="translate(445.917462 333.018125) scale(0.12 -0.12)">
       <use xlink:href="#DejaVuSans-32"/>
      </g>
     </g>
    </g>
    <g id="xtick_6">
     <g id="line2d_11">
      <path d="M 530.469924 320.4 
L 530.469924 43.2 
" clip-path="url(#p51b49f74a0)" style="fill: none; stroke-dasharray: 1.85,0.8; stroke-dashoffset: 0; stroke: #808080; stroke-opacity: 0.7; stroke-width: 0.5"/>
     </g>
     <g id="line2d_12">
      <g>
       <use xlink:href="#m3f8f0e2508" x="530.469924" y="320.4" style="fill: #1a1a1a; stroke: #1a1a1a; stroke-width: 0.8"/>
      </g>
     </g>
     <g id="text_6">
      <!-- 4 -->
      <g style="fill: #1a1a1a" transform="translate(526.652424 333.018125) scale(0.12 -0.12)">
       <use xlink:href="#DejaVuSans-34"/>
      </g>
     </g>
    </g>
    <g id="xtick_7">
     <g id="line2d_13">
      <path d="M 611.204886 320.4 
L 611.204886 43.2 
" clip-path="url(#p51b49f74a0)" style="fill: none; stroke-dasharray: 1.85,0.8; stroke-dashoffset: 0; stroke: #808080; stroke-opacity: 0.7; stroke-width: 0.5"/>
     </g>
     <g id="line2d_14">
      <g>
       <use xlink:href="#m3f8f0e2508" x="611.204886" y="320.4" style="fill: #1a1a1a; stroke: #1a1a1a; stroke-width: 0.8"/>
      </g>
     </g>
     <g id="text_7">
      <!-- 6 -->
      <g style="fill: #1a1a1a" transform="translate(607.387386 333.018125) scale(0.12 -0.12)">
       <use xlink:href="#DejaVuSans-36"/>
      </g>
     </g>
    </g>
    <g id="text_8">
     <!-- x -->
     <g style="fill: #1a1a1a" transform="translate(365.44875 348.631875) scale(0.12 -0.12)">
      <defs>
       <path id="DejaVuSans-78" d="M 3513 3500 
L 2247 1797 
L 3578 0 
L 2900 0 
L 1881 1375 
L 863 0 
L 184 0 
L 1544 1831 
L 300 3500 
L 978 3500 
L 1906 2253 
L 2834 3500 
L 3513 3500 
z
" transform="scale(0.015625)"/>
      </defs>
      <use xlink:href="#DejaVuSans-78"/>
     </g>
    </g>
   </g>
   <g id="matplotlib.axis_2">
    <g id="ytick_1">
     <g id="line2d_15">
      <path d="M 90 307.800156 
L 648 307.800156 
" clip-path="url(#p51b49f74a0)" style="fill: none; stroke-dasharray: 1.85,0.8; stroke-dashoffset: 0; stroke: #808080; stroke-opacity: 0.7; stroke-width: 0.5"/>
     </g>
     <g id="line2d_16">
      <defs>
       <path id="m0e11d3ecf2" d="M 0 0 
L 3.5 0 
" style="stroke: #1a1a1a; stroke-width: 0.8"/>
      </defs>
      <g>
       <use xlink:href="#m0e11d3ecf2" x="90" y="307.800156" style="fill: #1a1a1a; stroke: #1a1a1a; stroke-width: 0.8"/>
      </g>
     </g>
     <g id="text_9">
      <!-- −3 -->
      <g style="fill: #1a1a1a" transform="translate(68.809375 312.359218) scale(0.12 -0.12)">
       <defs>
        <path id="DejaVuSans-33" d="M 2597 2516 
Q 3050 2419 3304 2112 
Q 3559 1806 3559 1356 
Q 3559 666 3084 287 
Q 2609 -91 1734 -91 
Q 1441 -91 1130 -33 
Q 819 25 488 141 
L 488 750 
Q 750 597 1062 519 
Q 1375 441 1716 441 
Q 2309 441 2620 675 
Q 2931 909 2931 1356 
Q 2931 1769 2642 2001 
Q 2353 2234 1838 2234 
L 1294 2234 
L 1294 2753 
L 1863 2753 
Q 2328 2753 2575 2939 
Q 2822 3125 2822 3475 
Q 2822 3834 2567 4026 
Q 2313 4219 1838 4219 
Q 1578 4219 1281 4162 
Q 984 4106 628 3988 
L 628 4550 
Q 988 4650 1302 4700 
Q 1616 4750 1894 4750 
Q 2613 4750 3031 4423 
Q 3450 4097 3450 3541 
Q 3450 3153 3228 2886 
Q 3006 2619 2597 2516 
z
" transform="scale(0.015625)"/>
       </defs>
       <use xlink:href="#DejaVuSans-2212"/>
       <use xlink:href="#DejaVuSans-33" x="83.789062"/>
      </g>
     </g>
    </g>
    <g id="ytick_2">
     <g id="line2d_17">
      <path d="M 90 265.800104 
L 648 265.800104 
" clip-path="url(#p51b49f74a0)" style="fill: none; stroke-dasharray: 1.85,0.8; stroke-dashoffset: 0; stroke: #808080; stroke-opacity: 0.7; stroke-width: 0.5"/>
     </g>
     <g id="line2d_18">
      <g>
       <use xlink:href="#m0e11d3ecf2" x="90" y="265.800104" style="fill: #1a1a1a; stroke: #1a1a1a; stroke-width: 0.8"/>
      </g>
     </g>
     <g id="text_10">
      <!-- −2 -->
      <g style="fill: #1a1a1a" transform="translate(68.809375 270.359166) scale(0.12 -0.12)">
       <use xlink:href="#DejaVuSans-2212"/>
       <use xlink:href="#DejaVuSans-32" x="83.789062"/>
      </g>
     </g>
    </g>
    <g id="ytick_3">
     <g id="line2d_19">
      <path d="M 90 223.800052 
L 648 223.800052 
" clip-path="url(#p51b49f74a0)" style="fill: none; stroke-dasharray: 1.85,0.8; stroke-dashoffset: 0; stroke: #808080; stroke-opacity: 0.7; stroke-width: 0.5"/>
     </g>
     <g id="line2d_20">
      <g>
       <use xlink:href="#m0e11d3ecf2" x="90" y="223.800052" style="fill: #1a1a1a; stroke: #1a1a1a; stroke-width: 0.8"/>
      </g>
     </g>
     <g id="text_11">
      <!-- −1 -->
      <g style="fill: #1a1a1a" transform="translate(68.809375 228.359114) scale(0.12 -0.12)">
       <defs>
        <path id="DejaVuSans-31" d="M 794 531 
L 1825 531 
L 1825 4091 
L 703 3866 
L 703 4441 
L 1819 4666 
L 2450 4666 
L 2450 531 
L 3481 531 
L 3481 0 
L 794 0 
L 794 531 
z
" transform="scale(0.015625)"/>
       </defs>
       <use xlink:href="#DejaVuSans-2212"/>
       <use xlink:href="#DejaVuSans-31" x="83.789062"/>
      </g>
     </g>
    </g>
    <g id="ytick_4">
     <g id="line2d_21">
      <path d="M 90 181.8 
L 648 181.8 
" clip-path="url(#p51b49f74a0)" style="fill: none; stroke-dasharray: 1.85,0.8; stroke-dashoffset: 0; stroke: #808080; stroke-opacity: 0.7; stroke-width: 0.5"/>
     </g>
     <g id="line2d_22">
      <g>
       <use xlink:href="#m0e11d3ecf2" x="90" y="181.8" style="fill: #1a1a1a; stroke: #1a1a1a; stroke-width: 0.8"/>
      </g>
     </g>
     <g id="text_12">
      <!-- 0 -->
      <g style="fill: #1a1a1a" transform="translate(78.865 186.359063) scale(0.12 -0.12)">
       <use xlink:href="#DejaVuSans-30"/>
      </g>
     </g>
    </g>
    <g id="ytick_5">
     <g id="line2d_23">
      <path d="M 90 139.799948 
L 648 139.799948 
" clip-path="url(#p51b49f74a0)" style="fill: none; stroke-dasharray: 1.85,0.8; stroke-dashoffset: 0; stroke: #808080; stroke-opacity: 0.7; stroke-width: 0.5"/>
     </g>
     <g id="line2d_24">
      <g>
       <use xlink:href="#m0e11d3ecf2" x="90" y="139.799948" style="fill: #1a1a1a; stroke: #1a1a1a; stroke-width: 0.8"/>
      </g>
     </g>
     <g id="text_13">
      <!-- 1 -->
      <g style="fill: #1a1a1a" transform="translate(78.865 144.359011) scale(0.12 -0.12)">
       <use xlink:href="#DejaVuSans-31"/>
      </g>
     </g>
    </g>
    <g id="ytick_6">
     <g id="line2d_25">
      <path d="M 90 97.799896 
L 648 97.799896 
" clip-path="url(#p51b49f74a0)" style="fill: none; stroke-dasharray: 1.85,0.8; stroke-dashoffset: 0; stroke: #808080; stroke-opacity: 0.7; stroke-width: 0.5"/>
     </g>
     <g id="line2d_26">
      <g>
       <use xlink:href="#m0e11d3ecf2" x="90" y="97.799896" style="fill: #1a1a1a; stroke: #1a1a1a; stroke-width: 0.8"/>
      </g>
     </g>
     <g id="text_14">
      <!-- 2 -->
      <g style="fill: #1a1a1a" transform="translate(78.865 102.358959) scale(0.12 -0.12)">
       <use xlink:href="#DejaVuSans-32"/>
      </g>
     </g>
    </g>
    <g id="ytick_7">
     <g id="line2d_27">
      <path d="M 90 55.799844 
L 648 55.799844 
" clip-path="url(#p51b49f74a0)" style="fill: none; stroke-dasharray: 1.85,0.8; stroke-dashoffset: 0; stroke: #808080; stroke-opacity: 0.7; stroke-width: 0.5"/>
     </g>
     <g id="line2d_28">
      <g>
       <use xlink:href="#m0e11d3ecf2" x="90" y="55.799844" style="fill: #1a1a1a; stroke: #1a1a1a; stroke-width: 0.8"/>
      </g>
     </g>
     <g id="text_15">
      <!-- 3 -->
      <g style="fill: #1a1a1a" transform="translate(78.865 60.358907) scale(0.12 -0.12)">
       <use xlink:href="#DejaVuSans-33"/>
      </g>
     </g>
    </g>
    <g id="text_16">
     <!-- y -->
     <g style="fill: #1a1a1a" transform="translate(62.31375 185.35125) rotate(-90) scale(0.12 -0.12)">
      <defs>
       <path id="DejaVuSans-79" d="M 2059 -325 
Q 1816 -950 1584 -1140 
Q 1353 -1331 966 -1331 
L 506 -1331 
L 506 -850 
L 844 -850 
Q 1081 -850 1212 -737 
Q 1344 -625 1503 -206 
L 1606 56 
L 191 3500 
L 800 3500 
L 1894 763 
L 2988 3500 
L 3597 3500 
L 2059 -325 
z
" transform="scale(0.015625)"/>
      </defs>
      <use xlink:href="#DejaVuSans-79"/>
     </g>
    </g>
   </g>
   <g id="line2d_29">
    <path d="M 115.363636 181.8 
L 119.42588 231.159812 
L 121.457002 253.338615 
L 122.980344 268.12234 
L 124.503686 280.942932 
L 126.027027 291.508827 
L 127.042588 297.179203 
L 128.058149 301.682152 
L 129.07371 304.972112 
L 129.581491 306.15133 
L 130.089271 307.015796 
L 130.597052 307.563322 
L 131.104832 307.792524 
L 131.612613 307.70282 
L 132.120393 307.294437 
L 132.628174 306.56841 
L 133.135954 305.526576 
L 134.151515 302.506828 
L 135.167076 298.265747 
L 136.182637 292.846245 
L 137.198198 286.303157 
L 138.72154 274.529571 
L 140.244881 260.64714 
L 142.276003 239.408506 
L 144.814906 209.699689 
L 151.923833 123.487843 
L 153.954955 102.336288 
L 155.478296 88.535731 
L 157.001638 76.85618 
L 158.017199 70.381492 
L 159.03276 65.034156 
L 160.048321 60.868277 
L 161.063882 57.926006 
L 161.571663 56.92352 
L 162.079443 56.237115 
L 162.587224 55.868527 
L 163.095004 55.81869 
L 163.602785 56.087731 
L 164.110565 56.674967 
L 164.618346 57.578913 
L 165.126126 58.797281 
L 166.141687 62.164157 
L 167.157248 66.741531 
L 168.172809 72.483085 
L 169.18837 79.330728 
L 170.711712 91.521654 
L 172.235053 105.76568 
L 174.266175 127.385717 
L 176.805078 157.388635 
L 183.406224 237.639471 
L 185.437346 259.092116 
L 186.960688 273.176825 
L 188.484029 285.183452 
L 189.49959 291.8964 
L 190.515152 297.495372 
L 191.530713 301.923719 
L 192.546274 305.136633 
L 193.054054 306.276653 
L 193.561835 307.101605 
L 194.069615 307.609401 
L 194.577396 307.798754 
L 195.085176 307.669186 
L 195.592957 307.221025 
L 196.100737 306.455405 
L 196.608518 305.374264 
L 197.624079 302.277158 
L 198.63964 297.961042 
L 199.655201 292.469588 
L 200.670762 285.85836 
L 202.194103 273.991205 
L 203.717445 260.027448 
L 205.748567 238.702577 
L 208.287469 208.926339 
L 215.396396 122.786499 
L 217.427518 101.722858 
L 218.95086 88.004722 
L 220.474201 76.419668 
L 221.489762 70.013635 
L 222.505324 64.738677 
L 223.520885 60.648165 
L 224.536446 57.783489 
L 225.044226 56.820391 
L 225.552007 56.173634 
L 226.059787 55.844856 
L 226.567568 55.834888 
L 227.075348 56.143757 
L 227.583129 56.77068 
L 228.090909 57.71407 
L 228.59869 58.971539 
L 229.614251 62.415199 
L 230.629812 67.066816 
L 231.645373 72.879322 
L 232.660934 79.793907 
L 234.184275 92.076261 
L 235.707617 106.399102 
L 237.738739 128.101554 
L 240.277641 158.166572 
L 246.878788 238.348767 
L 248.90991 259.71644 
L 250.433251 273.720653 
L 251.956593 285.634417 
L 252.972154 292.279617 
L 253.987715 297.806965 
L 255.003276 302.160535 
L 256.018837 305.296275 
L 256.526618 306.397053 
L 257.034398 307.182458 
L 257.542179 307.650502 
L 258.049959 307.8 
L 258.55774 307.630574 
L 259.06552 307.142652 
L 259.573301 306.337469 
L 260.081081 305.217064 
L 261.096642 302.042721 
L 262.112203 297.651742 
L 263.127764 292.088554 
L 264.143325 285.409447 
L 265.666667 273.449192 
L 267.190008 259.404662 
L 269.22113 237.994397 
L 271.760033 208.151916 
L 278.86896 122.08749 
L 280.900082 101.112596 
L 282.423423 87.477424 
L 283.946765 75.987325 
L 284.962326 69.650201 
L 285.977887 64.447828 
L 286.993448 60.432846 
L 288.009009 57.645878 
L 288.51679 56.722205 
L 289.02457 56.115122 
L 289.532351 55.826166 
L 290.040131 55.856069 
L 290.547912 56.204753 
L 291.055692 56.871338 
L 291.563473 57.854135 
L 292.071253 59.150657 
L 293.086814 62.670964 
L 294.102375 67.396639 
L 295.117936 73.279868 
L 296.133497 80.261122 
L 297.656839 92.634417 
L 299.18018 107.035507 
L 301.211302 128.819516 
L 303.750205 158.945445 
L 310.351351 239.055825 
L 312.382473 260.337682 
L 313.905815 274.260845 
L 315.429156 286.081274 
L 316.444717 292.658465 
L 317.460278 298.113969 
L 318.475839 302.392589 
L 319.4914 305.451032 
L 319.999181 306.512524 
L 320.506962 307.258352 
L 321.014742 307.686625 
L 321.522523 307.796262 
L 322.030303 307.586983 
L 322.538084 307.05932 
L 323.045864 306.214607 
L 323.553645 305.054982 
L 324.569206 301.803529 
L 325.584767 297.337859 
L 326.600328 291.703157 
L 327.615889 284.956435 
L 329.13923 272.903554 
L 330.662572 258.778806 
L 332.693694 237.283994 
L 335.232596 207.376451 
L 342.341523 121.390843 
L 344.372645 100.505527 
L 345.895987 86.953857 
L 347.419328 75.559167 
L 348.434889 69.291203 
L 349.45045 64.161622 
L 350.466011 60.222328 
L 351.481572 57.513177 
L 351.989353 56.628967 
L 352.497133 56.061582 
L 353.004914 55.81246 
L 353.512695 55.882231 
L 354.020475 56.270718 
L 354.528256 56.976938 
L 355.036036 57.999103 
L 356.051597 60.980127 
L 357.067158 65.183628 
L 358.082719 70.567073 
L 359.09828 77.075993 
L 360.621622 88.80262 
L 362.144963 102.644182 
L 364.176085 123.839382 
L 366.714988 153.514048 
L 373.823915 239.760618 
L 375.855037 260.955818 
L 377.378378 274.79738 
L 378.90172 286.524007 
L 379.917281 293.032927 
L 380.932842 298.416372 
L 381.948403 302.619873 
L 382.963964 305.600897 
L 383.471744 306.623062 
L 383.979525 307.329282 
L 384.487305 307.717769 
L 384.995086 307.78754 
L 385.502867 307.538418 
L 386.010647 306.971033 
L 386.518428 306.086823 
L 387.026208 304.888024 
L 388.041769 301.559589 
L 389.05733 297.019406 
L 390.072891 291.313412 
L 391.088452 284.499343 
L 392.611794 272.354312 
L 394.135135 258.149905 
L 396.166257 236.571396 
L 398.70516 206.599973 
L 405.306306 126.316006 
L 407.337428 104.821194 
L 408.86077 90.696446 
L 410.384111 78.643565 
L 411.399672 71.896843 
L 412.415233 66.262141 
L 413.430794 61.796471 
L 414.446355 58.545018 
L 414.954136 57.385393 
L 415.461916 56.54068 
L 415.969697 56.013017 
L 416.477477 55.803738 
L 416.985258 55.913375 
L 417.493038 56.341648 
L 418.000819 57.087476 
L 418.5086 58.148968 
L 419.524161 61.207411 
L 420.539722 65.486031 
L 421.555283 70.941535 
L 422.570844 77.518726 
L 424.094185 89.339155 
L 425.617527 103.262318 
L 427.648649 124.544175 
L 430.187551 154.28685 
L 437.296478 240.463119 
L 439.3276 261.570822 
L 440.850942 275.330236 
L 442.374283 286.962596 
L 443.389844 293.402988 
L 444.405405 298.714162 
L 445.420966 302.842378 
L 446.436527 305.745865 
L 446.944308 306.728662 
L 447.452088 307.395247 
L 447.959869 307.743931 
L 448.467649 307.773834 
L 448.97543 307.484878 
L 449.48321 306.877795 
L 449.990991 305.954122 
L 450.498771 304.716198 
L 451.514333 301.310913 
L 452.529894 296.696395 
L 453.545455 290.919336 
L 454.561016 284.038188 
L 456.084357 271.801487 
L 457.607699 257.517984 
L 459.638821 235.856631 
L 462.177723 205.822515 
L 468.77887 125.605603 
L 470.809992 104.195338 
L 472.333333 90.150808 
L 473.856675 78.190553 
L 474.872236 71.511446 
L 475.887797 65.948258 
L 476.903358 61.557279 
L 477.918919 58.382936 
L 478.426699 57.262531 
L 478.93448 56.457348 
L 479.44226 55.969426 
L 479.950041 55.8 
L 480.457821 55.949498 
L 480.965602 56.417542 
L 481.473382 57.202947 
L 481.981163 58.303725 
L 482.996724 61.439465 
L 484.012285 65.793035 
L 485.027846 71.320383 
L 486.043407 77.965583 
L 487.566749 89.879347 
L 489.09009 103.88356 
L 491.121212 125.251233 
L 493.660115 155.06074 
L 500.769042 241.163299 
L 502.800164 262.18267 
L 504.323505 275.859392 
L 505.846847 287.397026 
L 506.862408 293.768636 
L 507.877969 299.007327 
L 508.89353 303.060094 
L 509.909091 305.88593 
L 510.416871 306.82932 
L 510.924652 307.456243 
L 511.432432 307.765112 
L 511.940213 307.755144 
L 512.447993 307.426366 
L 512.955774 306.779609 
L 513.463554 305.816511 
L 513.971335 304.539509 
L 514.986896 301.057508 
L 516.002457 296.368839 
L 517.018018 290.520943 
L 518.033579 283.572989 
L 519.556921 271.245103 
L 521.080262 256.883067 
L 523.111384 235.139729 
L 525.650287 205.044106 
L 532.251433 124.897423 
L 534.282555 103.572552 
L 535.805897 89.608795 
L 537.329238 77.74164 
L 538.344799 71.130412 
L 539.36036 65.638958 
L 540.375921 61.322842 
L 541.391482 58.225736 
L 541.899263 57.144595 
L 542.407043 56.378975 
L 542.914824 55.930814 
L 543.422604 55.801246 
L 543.930385 55.990599 
L 544.438165 56.498395 
L 544.945946 57.323347 
L 545.453726 58.463367 
L 546.469287 61.676281 
L 547.484848 66.104628 
L 548.50041 71.7036 
L 549.515971 78.416548 
L 551.039312 90.423175 
L 552.562654 104.507884 
L 554.593776 125.960529 
L 557.132678 155.835688 
L 564.241605 241.86113 
L 566.272727 262.791339 
L 567.796069 276.384827 
L 569.31941 287.827279 
L 570.334971 294.129854 
L 571.350532 299.295856 
L 572.366093 303.273014 
L 573.381654 306.021087 
L 573.889435 306.925033 
L 574.397215 307.512269 
L 574.904996 307.78131 
L 575.412776 307.731473 
L 575.920557 307.362885 
L 576.428337 306.67648 
L 576.936118 305.673994 
L 577.443898 304.357964 
L 578.459459 300.799386 
L 579.47502 296.036751 
L 580.490581 290.118249 
L 581.506143 283.103764 
L 583.029484 270.68518 
L 584.552826 256.24518 
L 586.583948 234.420716 
L 589.12285 204.264778 
L 595.723997 124.191494 
L 597.755119 102.95286 
L 599.27846 89.070429 
L 600.801802 77.296843 
L 601.817363 70.753755 
L 602.832924 65.334253 
L 603.848485 61.093172 
L 604.864046 58.073424 
L 605.371826 57.03159 
L 605.879607 56.305563 
L 606.387387 55.89718 
L 606.895168 55.807476 
L 607.402948 56.036678 
L 607.910729 56.584204 
L 608.418509 57.44867 
L 608.92629 58.627888 
L 609.941851 61.917848 
L 610.957412 66.420797 
L 611.972973 72.091173 
L 612.988534 78.871602 
L 614.511876 90.970618 
L 616.035217 105.135266 
L 618.066339 126.672033 
L 620.605242 156.611664 
L 622.636364 181.8 
L 622.636364 181.8 
" clip-path="url(#p51b49f74a0)" style="fill: none; stroke: #ffaf00; stroke-width: 1.5; stroke-linecap: square"/>
   </g>
   <g id="line2d_30">
    <path d="M 90 181.8 
L 648 181.8 
" clip-path="url(#p51b49f74a0)" style="fill: none; stroke: #000000; stroke-width: 0.5; stroke-linecap: square"/>
   </g>
   <g id="line2d_31">
    <path d="M 369 320.4 
L 369 43.2 
" clip-path="url(#p51b49f74a0)" style="fill: none; stroke: #000000; stroke-width: 0.5; stroke-linecap: square"/>
   </g>
   <g id="patch_3">
    <path d="M 90 320.4 
L 90 43.2 
" style="fill: none; stroke: #1a1a1a; stroke-linejoin: miter; stroke-linecap: square"/>
   </g>
   <g id="patch_4">
    <path d="M 90 320.4 
L 648 320.4 
" style="fill: none; stroke: #1a1a1a; stroke-linejoin: miter; stroke-linecap: square"/>
   </g>
   <g id="text_17">
    <!-- Graph of $y = 3 \sin(4x - \pi)$ -->
    <g style="fill: #333333" transform="translate(269.8 37.2) scale(0.16 -0.16)">
     <defs>
      <path id="DejaVuSans-47" d="M 3809 666 
L 3809 1919 
L 2778 1919 
L 2778 2438 
L 4434 2438 
L 4434 434 
Q 4069 175 3628 42 
Q 3188 -91 2688 -91 
Q 1594 -91 976 548 
Q 359 1188 359 2328 
Q 359 3472 976 4111 
Q 1594 4750 2688 4750 
Q 3144 4750 3555 4637 
Q 3966 4525 4313 4306 
L 4313 3634 
Q 3963 3931 3569 4081 
Q 3175 4231 2741 4231 
Q 1884 4231 1454 3753 
Q 1025 3275 1025 2328 
Q 1025 1384 1454 906 
Q 1884 428 2741 428 
Q 3075 428 3337 486 
Q 3600 544 3809 666 
z
" transform="scale(0.015625)"/>
      <path id="DejaVuSans-72" d="M 2631 2963 
Q 2534 3019 2420 3045 
Q 2306 3072 2169 3072 
Q 1681 3072 1420 2755 
Q 1159 2438 1159 1844 
L 1159 0 
L 581 0 
L 581 3500 
L 1159 3500 
L 1159 2956 
Q 1341 3275 1631 3429 
Q 1922 3584 2338 3584 
Q 2397 3584 2469 3576 
Q 2541 3569 2628 3553 
L 2631 2963 
z
" transform="scale(0.015625)"/>
      <path id="DejaVuSans-61" d="M 2194 1759 
Q 1497 1759 1228 1600 
Q 959 1441 959 1056 
Q 959 750 1161 570 
Q 1363 391 1709 391 
Q 2188 391 2477 730 
Q 2766 1069 2766 1631 
L 2766 1759 
L 2194 1759 
z
M 3341 1997 
L 3341 0 
L 2766 0 
L 2766 531 
Q 2569 213 2275 61 
Q 1981 -91 1556 -91 
Q 1019 -91 701 211 
Q 384 513 384 1019 
Q 384 1609 779 1909 
Q 1175 2209 1959 2209 
L 2766 2209 
L 2766 2266 
Q 2766 2663 2505 2880 
Q 2244 3097 1772 3097 
Q 1472 3097 1187 3025 
Q 903 2953 641 2809 
L 641 3341 
Q 956 3463 1253 3523 
Q 1550 3584 1831 3584 
Q 2591 3584 2966 3190 
Q 3341 2797 3341 1997 
z
" transform="scale(0.015625)"/>
      <path id="DejaVuSans-70" d="M 1159 525 
L 1159 -1331 
L 581 -1331 
L 581 3500 
L 1159 3500 
L 1159 2969 
Q 1341 3281 1617 3432 
Q 1894 3584 2278 3584 
Q 2916 3584 3314 3078 
Q 3713 2572 3713 1747 
Q 3713 922 3314 415 
Q 2916 -91 2278 -91 
Q 1894 -91 1617 61 
Q 1341 213 1159 525 
z
M 3116 1747 
Q 3116 2381 2855 2742 
Q 2594 3103 2138 3103 
Q 1681 3103 1420 2742 
Q 1159 2381 1159 1747 
Q 1159 1113 1420 752 
Q 1681 391 2138 391 
Q 2594 391 2855 752 
Q 3116 1113 3116 1747 
z
" transform="scale(0.015625)"/>
      <path id="DejaVuSans-68" d="M 3513 2113 
L 3513 0 
L 2938 0 
L 2938 2094 
Q 2938 2591 2744 2837 
Q 2550 3084 2163 3084 
Q 1697 3084 1428 2787 
Q 1159 2491 1159 1978 
L 1159 0 
L 581 0 
L 581 4863 
L 1159 4863 
L 1159 2956 
Q 1366 3272 1645 3428 
Q 1925 3584 2291 3584 
Q 2894 3584 3203 3211 
Q 3513 2838 3513 2113 
z
" transform="scale(0.015625)"/>
      <path id="DejaVuSans-20" transform="scale(0.015625)"/>
      <path id="DejaVuSans-6f" d="M 1959 3097 
Q 1497 3097 1228 2736 
Q 959 2375 959 1747 
Q 959 1119 1226 758 
Q 1494 397 1959 397 
Q 2419 397 2687 759 
Q 2956 1122 2956 1747 
Q 2956 2369 2687 2733 
Q 2419 3097 1959 3097 
z
M 1959 3584 
Q 2709 3584 3137 3096 
Q 3566 2609 3566 1747 
Q 3566 888 3137 398 
Q 2709 -91 1959 -91 
Q 1206 -91 779 398 
Q 353 888 353 1747 
Q 353 2609 779 3096 
Q 1206 3584 1959 3584 
z
" transform="scale(0.015625)"/>
      <path id="DejaVuSans-66" d="M 2375 4863 
L 2375 4384 
L 1825 4384 
Q 1516 4384 1395 4259 
Q 1275 4134 1275 3809 
L 1275 3500 
L 2222 3500 
L 2222 3053 
L 1275 3053 
L 1275 0 
L 697 0 
L 697 3053 
L 147 3053 
L 147 3500 
L 697 3500 
L 697 3744 
Q 697 4328 969 4595 
Q 1241 4863 1831 4863 
L 2375 4863 
z
" transform="scale(0.015625)"/>
      <path id="DejaVuSans-Oblique-79" d="M 1588 -325 
Q 1188 -997 936 -1164 
Q 684 -1331 294 -1331 
L -159 -1331 
L -63 -850 
L 269 -850 
Q 509 -850 678 -719 
Q 847 -588 1056 -206 
L 1234 128 
L 459 3500 
L 1069 3500 
L 1650 819 
L 3256 3500 
L 3859 3500 
L 1588 -325 
z
" transform="scale(0.015625)"/>
      <path id="DejaVuSans-3d" d="M 678 2906 
L 4684 2906 
L 4684 2381 
L 678 2381 
L 678 2906 
z
M 678 1631 
L 4684 1631 
L 4684 1100 
L 678 1100 
L 678 1631 
z
" transform="scale(0.015625)"/>
      <path id="DejaVuSans-73" d="M 2834 3397 
L 2834 2853 
Q 2591 2978 2328 3040 
Q 2066 3103 1784 3103 
Q 1356 3103 1142 2972 
Q 928 2841 928 2578 
Q 928 2378 1081 2264 
Q 1234 2150 1697 2047 
L 1894 2003 
Q 2506 1872 2764 1633 
Q 3022 1394 3022 966 
Q 3022 478 2636 193 
Q 2250 -91 1575 -91 
Q 1294 -91 989 -36 
Q 684 19 347 128 
L 347 722 
Q 666 556 975 473 
Q 1284 391 1588 391 
Q 1994 391 2212 530 
Q 2431 669 2431 922 
Q 2431 1156 2273 1281 
Q 2116 1406 1581 1522 
L 1381 1569 
Q 847 1681 609 1914 
Q 372 2147 372 2553 
Q 372 3047 722 3315 
Q 1072 3584 1716 3584 
Q 2034 3584 2315 3537 
Q 2597 3491 2834 3397 
z
" transform="scale(0.015625)"/>
      <path id="DejaVuSans-69" d="M 603 3500 
L 1178 3500 
L 1178 0 
L 603 0 
L 603 3500 
z
M 603 4863 
L 1178 4863 
L 1178 4134 
L 603 4134 
L 603 4863 
z
" transform="scale(0.015625)"/>
      <path id="DejaVuSans-6e" d="M 3513 2113 
L 3513 0 
L 2938 0 
L 2938 2094 
Q 2938 2591 2744 2837 
Q 2550 3084 2163 3084 
Q 1697 3084 1428 2787 
Q 1159 2491 1159 1978 
L 1159 0 
L 581 0 
L 581 3500 
L 1159 3500 
L 1159 2956 
Q 1366 3272 1645 3428 
Q 1925 3584 2291 3584 
Q 2894 3584 3203 3211 
Q 3513 2838 3513 2113 
z
" transform="scale(0.015625)"/>
      <path id="DejaVuSans-28" d="M 1984 4856 
Q 1566 4138 1362 3434 
Q 1159 2731 1159 2009 
Q 1159 1288 1364 580 
Q 1569 -128 1984 -844 
L 1484 -844 
Q 1016 -109 783 600 
Q 550 1309 550 2009 
Q 550 2706 781 3412 
Q 1013 4119 1484 4856 
L 1984 4856 
z
" transform="scale(0.015625)"/>
      <path id="DejaVuSans-Oblique-78" d="M 3841 3500 
L 2234 1784 
L 3219 0 
L 2559 0 
L 1819 1388 
L 531 0 
L -166 0 
L 1556 1844 
L 641 3500 
L 1300 3500 
L 1972 2234 
L 3144 3500 
L 3841 3500 
z
" transform="scale(0.015625)"/>
      <path id="DejaVuSans-Oblique-3c0" d="M 584 3500 
L 3938 3500 
L 3825 2925 
L 3384 2925 
L 2966 775 
Q 2922 550 2981 450 
Q 3038 353 3209 353 
Q 3256 353 3325 363 
Q 3397 369 3419 372 
L 3338 -44 
Q 3222 -84 3103 -103 
Q 2981 -122 2866 -122 
Q 2491 -122 2388 81 
Q 2284 288 2391 838 
L 2797 2925 
L 1506 2925 
L 938 0 
L 350 0 
L 919 2925 
L 472 2925 
L 584 3500 
z
" transform="scale(0.015625)"/>
      <path id="DejaVuSans-29" d="M 513 4856 
L 1013 4856 
Q 1481 4119 1714 3412 
Q 1947 2706 1947 2009 
Q 1947 1309 1714 600 
Q 1481 -109 1013 -844 
L 513 -844 
Q 928 -128 1133 580 
Q 1338 1288 1338 2009 
Q 1338 2731 1133 3434 
Q 928 4138 513 4856 
z
" transform="scale(0.015625)"/>
     </defs>
     <use xlink:href="#DejaVuSans-47" transform="translate(0 0.015625)"/>
     <use xlink:href="#DejaVuSans-72" transform="translate(77.490234 0.015625)"/>
     <use xlink:href="#DejaVuSans-61" transform="translate(118.603516 0.015625)"/>
     <use xlink:href="#DejaVuSans-70" transform="translate(179.882812 0.015625)"/>
     <use xlink:href="#DejaVuSans-68" transform="translate(243.359375 0.015625)"/>
     <use xlink:href="#DejaVuSans-20" transform="translate(306.738281 0.015625)"/>
     <use xlink:href="#DejaVuSans-6f" transform="translate(338.525391 0.015625)"/>
     <use xlink:href="#DejaVuSans-66" transform="translate(399.707031 0.015625)"/>
     <use xlink:href="#DejaVuSans-20" transform="translate(434.912109 0.015625)"/>
     <use xlink:href="#DejaVuSans-Oblique-79" transform="translate(466.699219 0.015625)"/>
     <use xlink:href="#DejaVuSans-3d" transform="translate(545.361328 0.015625)"/>
     <use xlink:href="#DejaVuSans-33" transform="translate(648.632812 0.015625)"/>
     <use xlink:href="#DejaVuSans-73" transform="translate(712.255859 0.015625)"/>
     <use xlink:href="#DejaVuSans-69" transform="translate(764.355469 0.015625)"/>
     <use xlink:href="#DejaVuSans-6e" transform="translate(792.138672 0.015625)"/>
     <use xlink:href="#DejaVuSans-28" transform="translate(855.517578 0.015625)"/>
     <use xlink:href="#DejaVuSans-34" transform="translate(894.53125 0.015625)"/>
     <use xlink:href="#DejaVuSans-Oblique-78" transform="translate(958.154297 0.015625)"/>
     <use xlink:href="#DejaVuSans-2212" transform="translate(1036.816406 0.015625)"/>
     <use xlink:href="#DejaVuSans-Oblique-3c0" transform="translate(1140.087891 0.015625)"/>
     <use xlink:href="#DejaVuSans-29" transform="translate(1200.292969 0.015625)"/>
    </g>
   </g>
   <g id="legend_1">
    <g id="patch_5">
     <path d="M 531.7 190.65 
L 641 190.65 
Q 643 190.65 643 188.65 
L 643 174.95 
Q 643 172.95 641 172.95 
L 531.7 172.95 
Q 529.7 172.95 529.7 174.95 
L 529.7 188.65 
Q 529.7 190.65 531.7 190.65 
z
" style="fill: #ffffff; opacity: 0.8; stroke: #cccccc; stroke-linejoin: miter"/>
    </g>
    <g id="line2d_32">
     <path d="M 533.7 181.05 
L 543.7 181.05 
L 553.7 181.05 
" style="fill: none; stroke: #ffaf00; stroke-width: 1.5; stroke-linecap: square"/>
    </g>
    <g id="text_18">
     <!-- $y = 3 \sin(4x - \pi)$ -->
     <g style="fill: #333333" transform="translate(561.7 184.55) scale(0.1 -0.1)">
      <use xlink:href="#DejaVuSans-Oblique-79" transform="translate(0 0.015625)"/>
      <use xlink:href="#DejaVuSans-3d" transform="translate(78.662109 0.015625)"/>
      <use xlink:href="#DejaVuSans-33" transform="translate(181.933594 0.015625)"/>
      <use xlink:href="#DejaVuSans-73" transform="translate(245.556641 0.015625)"/>
      <use xlink:href="#DejaVuSans-69" transform="translate(297.65625 0.015625)"/>
      <use xlink:href="#DejaVuSans-6e" transform="translate(325.439453 0.015625)"/>
      <use xlink:href="#DejaVuSans-28" transform="translate(388.818359 0.015625)"/>
      <use xlink:href="#DejaVuSans-34" transform="translate(427.832031 0.015625)"/>
      <use xlink:href="#DejaVuSans-Oblique-78" transform="translate(491.455078 0.015625)"/>
      <use xlink:href="#DejaVuSans-2212" transform="translate(570.117188 0.015625)"/>
      <use xlink:href="#DejaVuSans-Oblique-3c0" transform="translate(673.388672 0.015625)"/>
      <use xlink:href="#DejaVuSans-29" transform="translate(733.59375 0.015625)"/>
     </g>
    </g>
   </g>
  </g>
 </g>
 <defs>
  <clipPath id="p51b49f74a0">
   <rect x="90" y="43.2" width="558" height="277.2"/>
  </clipPath>
 </defs>
</svg>
